<svg xmlns="http://www.w3.org/2000/svg" xmlns:xlink="http://www.w3.org/1999/xlink" viewBox="0 0 450 220"><defs><path id="a" d="M0 0h450v220H0z"/></defs><g fill="none" fill-rule="evenodd"><mask id="b" fill="#fff"><use xlink:href="#a"/></mask><use xlink:href="#a" fill="#382AE1"/><path fill="#1E1FCD" fill-rule="nonzero" d="M218.8 46v13.4h1.7V63h6.3v78l12.8 6.7v-13h3v14.6l3 1.6v112.9l-213.7 2.4V194h7v-69.5h2.6V115h3v9.5h14.2v.2l-.1 31.6v13.4l1.8.1h5.5v36.4h5.9V76.4H79v-7.2h3v7.2h23.2v6.4h8.8V69.2h3v13.6h4.3v23.8h10.4v42.6H144v38.7h6.4v-80.4h8V95.2h3v12.3h22.2V63h6.4v-3.6h25.8V46h3zm-203 101.5v4.1H19L25.5 266H-8l6.4-114.3H1v-4.1h14.8z" mask="url(#b)"/><path fill="#1E1FCD" fill-rule="nonzero" d="M422.8 82v13.4h1.7V99h6.3v78l12.8 6.7v-13h3v14.6l3 1.6v112.9l-213.7 2.4V230h7v-69.5h2.6V151h3v9.5h14.2v.2l-.1 31.6v13.4l1.8.1h5.5v36.4h5.9V112.4h7.3v-7.2h3v7.2h23.2v6.4h8.8v-13.6h3v13.6h4.3v23.8h10.4v42.6H348v38.7h6.4v-80.4h8v-12.3h3v12.3h22.2V99h6.4v-3.6h25.8V82h3zm-203 101.5v4.1h3.2l6.5 114.3H196l6.4-114.3h2.6v-4.1h14.8z" mask="url(#b)"/><g fill-rule="nonzero" mask="url(#b)"><path fill="#FFF" d="M224.7 27.9c-.1-2.1-9.6 4-9.6 4s8-6.1 7.4-7.7c-.7-1.5-9.8 5.2-9.8 5.2s8.3-6.3 7-7.7c-1.3-1.3-10 5.8-10 5.8s9-7.9 5.5-8c-1.6-.2-13.7 8-26.8 18 3.7 4.5 7.4 9 11.3 13.2a318 318 0 0 0 8-8.4c1.3-1.7 14.7-.5 14.8-2.7 0-2-8.8-3-8.8-3s11.2-6.6 11-8.7z"/><path fill="#231F20" d="M199.7 51.1a.4.4 0 0 1-.3-.1c-3.6-3.8-7.2-8-11.4-13.3a.4.4 0 0 1 0-.3.5.5 0 0 1 .1-.3c9.7-7.3 24.8-18.1 27-18.1.5 0 1 .2 1.1.7.3.8-.7 2.3-2 3.9 2.5-1.7 5-3 5.8-2.2l.2.8c0 .7-1 1.8-2 3 1.7-1 3.3-1.8 4-1.6a.8.8 0 0 1 .6.5c.4 1-1.3 2.9-3.3 4.7 2.2-1.1 4.3-2 5.2-1.6a.8.8 0 0 1 .4.7c.2 2-7.1 6.5-10.2 8.4 2.8.4 8 1.4 8 3.4 0 1.4-3.1 1.6-8 1.9-2.9.1-6.5.3-7 1s-3 3.3-8 8.4a.5.5 0 0 1-.2.1zM189 37.5c4 5 7.3 9 10.7 12.6l7.6-8c.7-1 3.3-1.1 7.6-1.3 2.4-.2 7-.4 7.1-1.2 0-1-4.4-2.2-8.4-2.6a.4.4 0 0 1-.4-.4.4.4 0 0 1 .2-.4c5.4-3.2 11-7.1 11-8.3-.6-.3-4.7 1.7-9 4.5a.4.4 0 0 1-.5-.7c4.1-3.2 7.5-6.6 7.2-7.2-.7-.3-4.8 2.1-9.1 5.3a.4.4 0 0 1-.6-.6c2.7-2 6.9-5.8 7-7V22c-.5-.6-5 2.2-9.5 5.8a.4.4 0 0 1-.6 0 .4.4 0 0 1 0-.6c3.2-2.9 6.4-6.5 6.1-7.3l-.3-.1A167 167 0 0 0 189 37.4z"/><path fill="#231F20" d="M153 68.9c-2.6 8.5 13.7 47.8 13.7 47.8l20.1-24.9-10.6-18.5s15-14 23.4-22.6a293 293 0 0 1-11.3-13.3c-16 12.2-33.8 26.8-35.2 31.5z"/><path fill="#231F20" d="M166.7 117.1h-.1a.4.4 0 0 1-.4-.2c-.6-1.6-16.3-39.6-13.6-48.1 1.6-4.9 19.3-19.6 35.5-31.7a.4.4 0 0 1 .5 0 201 201 0 0 0 11.3 13.3c.2.2.2.4 0 .6-7.7 8-21.3 20.6-23.2 22.4a54892.8 54892.8 0 0 0 10.5 18.2v.5L167 117a.4.4 0 0 1-.3.1zM188.3 38c-15.2 11.5-33.4 26.4-34.9 31-2.4 7.7 11.3 41.8 13.3 47l19.7-24.2-10.5-18.3a.4.4 0 0 1 0-.5c.2-.1 14.9-13.7 23.2-22.3-3.4-3.7-6.8-7.7-10.8-12.7z"/><path fill="#FFF" d="M201 109.5c1.7 11.4 9.3 21.1 17.6 30 4.9 5.2 11 10.5 18.2 10.2 3.5-.2 6.7-1.7 9.7-3.4a73.7 73.7 0 0 0 20-16.2 4.5 4.5 0 0 1-4.5-4 8.9 8.9 0 0 0 9.2-1c5.6-4.5 3-8.4-1.4-11.7a51.7 51.7 0 0 1-15.5-19.6c-5.4-12-16-28-31.8-24.3-15.2 3.5-19.3 17-21.4 30.5a31.9 31.9 0 0 0 0 9.5z"/><path fill="#231F20" d="M236.1 150.1c-7 0-13-5.2-17.8-10.4-7.8-8.2-16-18.2-17.7-30.1a32.4 32.4 0 0 1 .1-9.7c1-5.8 2.4-13.2 5.8-19.2A23.6 23.6 0 0 1 222.4 69c7.2-1.7 20.9-.7 32.2 24.5A51.1 51.1 0 0 0 270 113c3.3 2.5 4.8 4.7 4.8 6.9 0 1.8-1.1 3.7-3.4 5.5a9.3 9.3 0 0 1-8.8 1.4 4.1 4.1 0 0 0 3.9 2.9.4.4 0 0 1 .4.2.4.4 0 0 1 0 .5 73.3 73.3 0 0 1-20.2 16.3 23.2 23.2 0 0 1-9.9 3.4h-.7zm-9.3-80.8a20 20 0 0 0-4.2.5c-15 3.5-19 16.6-21 30.3a31.6 31.6 0 0 0-.1 9.4c1.6 11.6 9.7 21.5 17.4 29.7 4.9 5.2 10.8 10.4 18 10 3.4-.1 6.7-1.7 9.5-3.2a72.5 72.5 0 0 0 19.2-15.6 5 5 0 0 1-4-4.3.4.4 0 0 1 .2-.4.4.4 0 0 1 .4 0 8.4 8.4 0 0 0 8.7-1c2-1.5 3-3.2 3-4.8 0-1.9-1.4-4-4.4-6.2A52 52 0 0 1 253.8 94c-9-20.3-19.6-24.6-27-24.6z"/><path fill="#FFF" d="M305.9 145.4c-.7 2.5-11.2 21.3-11.2 21.3l13.7 7.4S321 153.3 322 152c1.1-1.4 10.1-13.4 11.4-17.6 1.2-4.2-7.5-7.3-11-7-3.6.4-15.8 15.5-16.4 18z"/><path fill="#231F20" d="M308.4 174.6a.4.4 0 0 1-.2 0l-13.7-7.5a.4.4 0 0 1-.2-.3.4.4 0 0 1 0-.3 260 260 0 0 0 11-21.2c.8-2.7 13.1-18 16.8-18.4a16 16 0 0 1 10.7 4.2 3.6 3.6 0 0 1 .8 3.4 105.2 105.2 0 0 1-11.4 17.7c-1 1.4-13.4 22-13.5 22.2a.4.4 0 0 1-.3.2zm-13.2-8 13 7c1.7-2.8 12.4-20.6 13.4-22a99.6 99.6 0 0 0 11.2-17.4 2.7 2.7 0 0 0-.6-2.6c-2.1-2.5-7.5-4-10-3.9-3.3.3-15.4 15.6-16 17.8a251 251 0 0 1-11 21z"/><path fill="#231F20" d="m301.9 153.5-12.3 15-26.5-17.8-11.3 21s37.5 28.2 42.9 25.5c5.3-2.7 21.4-36 21.4-36l-14.2-7.7z"/><path fill="#231F20" d="M293.8 197.8c-7.7 0-38.6-23-42.3-25.8a.4.4 0 0 1 0-.5l11.2-21a.4.4 0 0 1 .6-.1l26.2 17.5 12-14.6a.4.4 0 0 1 .6-.1l14.2 7.7a.4.4 0 0 1 .2.6c-.7 1.3-16.3 33.4-21.7 36-.3.2-.6.3-1 .3zm-41.5-26.2c10.6 8 38 27.3 42.2 25.2 4.9-2.4 19.4-31.8 21.1-35.4L302 154l-12 14.7a.4.4 0 0 1-.6.1l-26.2-17.5-10.9 20.3zm60.9-54.7-.2 36.6h17.4v-36.6z"/><path fill="#231F20" d="M330.4 154H313a.4.4 0 0 1-.4-.5l.1-36.6a.4.4 0 0 1 .5-.4h17.2c.2 0 .4.1.4.4v36.6a.4.4 0 0 1-.4.4zm-17-.9H330v-35.8h-16.5V153z"/><path fill="#FFF" d="m315 120.1-.2 28.8h13.8V120z"/><path fill="#231F20" d="M328.6 149.3h-13.8a.4.4 0 0 1-.3-.1.4.4 0 0 1 0-.3V120a.4.4 0 0 1 .4-.4h13.7c.3 0 .4.2.4.4v29a.4.4 0 0 1-.4.4zm-13.4-.9h13v-27.9h-12.9v28z"/><path fill="#FFF" d="M305.1 147.3s-2.6-12.4 1.3-14.3c3.9-2 17.2-4.2 15.1-1.2s-9.2 5-9.2 5 1.4 4.2-.2 7.3"/><path fill="#231F20" d="M305.1 147.7a.4.4 0 0 1-.4-.3c-.1-.6-2.6-12.7 1.5-14.8 3.4-1.6 14.2-3.8 15.7-2a1 1 0 0 1 0 1.5c-1.8 2.7-7.5 4.5-9.1 5 .3 1.1 1 4.6-.3 7.3a.4.4 0 0 1-.6.1.4.4 0 0 1-.2-.6c1.6-2.8.2-7 .2-7a.4.4 0 0 1 0-.3.4.4 0 0 1 .2-.2s7.1-1.9 9-4.7l.2-.5c-1-1.1-11 .4-14.8 2.2-2.9 1.5-1.7 10.5-1 13.8a.4.4 0 0 1-.3.5h-.1z"/><path fill="#75ECCA" d="m209.2 123.3-22.9-39.2-25.7 28.5 9.6 20.6s-14.7 34.7-14.7 102.7l97.8-.3-25.7-40s6.4-18.4 9.8-23l19 10.3 22.5-30.4-69.7-29.2z"/><path fill="#231F20" d="M208.8 160.7c12.7 7.3 15.6-22.5 16.2-29 .3-1.7.1-3.5-.3-5.3a14 14 0 0 0-4.1-5.5c-2-1.8-4.4-3.7-7.2-3.8a8.3 8.3 0 0 0-6.5 3.4 20.1 20.1 0 0 0-3.2 7 37.9 37.9 0 0 0 2.9 30.7 6.6 6.6 0 0 0 2 2.3l.2.2z"/><path fill="#231F20" d="M212.6 162.2a8 8 0 0 1-4-1.2l-.2-.2a6.9 6.9 0 0 1-2.2-2.4 38.2 38.2 0 0 1-2.9-31 20.6 20.6 0 0 1 3.2-7.1 8.6 8.6 0 0 1 7-3.6c2.8.1 5.2 2 7.3 4a14 14 0 0 1 4.2 5.6c.5 1.8.6 3.7.4 5.5-.9 9.6-3.3 26.3-10.1 29.8a5.7 5.7 0 0 1-2.7.6zm.6-44.7a7.9 7.9 0 0 0-6 3.3 19.8 19.8 0 0 0-3.1 6.8 37.3 37.3 0 0 0 2.8 30.4 6.2 6.2 0 0 0 1.9 2.2l.2.1c2.2 1.3 4.1 1.5 6 .5 4.6-2.4 8.2-13 9.6-29a13.1 13.1 0 0 0-.3-5.2c-.7-2.2-2.4-3.8-4-5.3-2-2-4.3-3.7-6.9-3.8h-.2zm33.3-12.7c1.2 4.2-.8 9.6-3.6 12.7-2 2-6.1 2.6-7-.7a17 17 0 0 1 2.2-13c1.9-3 5.4-4.8 7.6-1 .4.7.6 1.3.8 2z"/><path fill="#231F20" d="M239 119.6a4.4 4.4 0 0 1-1-.1 3.4 3.4 0 0 1-2.4-2.6 17.5 17.5 0 0 1 2.1-13.4c1.3-2 3.1-3.3 4.8-3.3 1 0 2.4.5 3.5 2.5.4.6.7 1.3.9 2 1.2 4.6-1 10-3.7 13a5.7 5.7 0 0 1-4.1 1.9zm3.5-18.6c-1.4 0-3 1.2-4 3a16.6 16.6 0 0 0-2.2 12.7c.2 1 1 1.7 2 2a4.8 4.8 0 0 0 4.3-1.5c2.6-2.8 4.7-8 3.5-12.3a7.7 7.7 0 0 0-.8-1.8c-.7-1.4-1.7-2-2.8-2z"/><path fill="#FFF" d="M226.8 123.7c-1.8 7-3.7 23-15.4 14.7a14.8 14.8 0 0 1-3-3.4c-5.8-7.6-4.2-12.5-1.2-20.9l3.7-11c1.2-3.7 3.3-7.1 5-10.6 0 .1 5.8 1 11.6-1.7 5.8-2.6 10.6-5.3 10.6-5.3 1.6 2.3 3.3 4 4.1 6.9.8 2.7 1 5.5.7 8.3a61.9 61.9 0 0 1-6.6 20.3c-3.1 6.2-9.5 2.7-9.5 2.7z"/><path fill="#231F20" d="M217.3 141.2a11 11 0 0 1-6.1-2.5 15.3 15.3 0 0 1-3.2-3.4c-6-7.9-4.1-13-1.2-21.3l1.8-5.3 1.9-5.7a60.5 60.5 0 0 1 3.6-7.7l1.5-3a.4.4 0 0 1 .6-.1 21.1 21.1 0 0 0 11.1-1.8 155.6 155.6 0 0 0 10.6-5.3.4.4 0 0 1 .6.1l1.2 1.7a17.2 17.2 0 0 1 3 5.3c.7 2.8 1 5.7.6 8.5a62 62 0 0 1-6.6 20.5 6.7 6.7 0 0 1-4 3.6 8.5 8.5 0 0 1-5.6-.5 97 97 0 0 0-.6 2.4c-1.2 5.3-2.9 12.5-7.2 14.1a5.5 5.5 0 0 1-2 .4zm-1-48.2-1.4 2.6a60 60 0 0 0-3.6 7.7l-2 5.6c-.5 2-1 3.6-1.7 5.4-3 8.3-4.6 13 1 20.5a14.6 14.6 0 0 0 3 3.2c3 2.1 5.4 2.8 7.4 2 4-1.5 5.5-8.4 6.7-13.5l.7-2.9a.4.4 0 0 1 .6-.2 8 8 0 0 0 5.6.6 5.8 5.8 0 0 0 3.4-3.1 61 61 0 0 0 6.6-20.3 20.7 20.7 0 0 0-.7-8.1 16.6 16.6 0 0 0-2.9-5.1l-1-1.4a164 164 0 0 1-10.2 5.2 22 22 0 0 1-11.6 1.8z"/><path fill="#231F20" d="M224.9 130.5s-5.7-1.3-8.3-6c-2.6-4.7-1-8.4-1-8.4s5 5.8 11.2 7.6l-2 6.8z"/><path fill="#231F20" d="M224.9 130.9h-.1a14 14 0 0 1-8.5-6.2c-2.7-4.8-1.2-8.5-1-8.7a.4.4 0 0 1 .2-.2.4.4 0 0 1 .4 0c0 .1 5 5.8 11 7.5a.4.4 0 0 1 .3.6l-2 6.7a.4.4 0 0 1-.3.3zm-9.1-14a10.2 10.2 0 0 0 1.2 7.4c2 3.8 6.3 5.3 7.6 5.7l1.7-6c-5-1.6-9.2-5.6-10.5-7zm12.6-4.7a7.6 7.6 0 0 1-3.3-1 .4.4 0 1 1 .4-.8c.7.4 2.7 1.3 3.7.7.6-.3-.1-4.1-1.5-8.2a.4.4 0 1 1 .8-.3c.8 2.5 2.6 8.3 1 9.2-.3.2-.7.4-1.1.4z"/><path fill="#231F20" d="M226.7 117.1a6.1 6.1 0 0 1-2.8-.6c-2.3-1.1-3.6-3.8-4.1-8a.4.4 0 0 1 .3-.4.4.4 0 0 1 .5.4c.4 3.8 1.7 6.3 3.7 7.3 3 1.5 7-.8 7-.8a.4.4 0 0 1 .5.2.4.4 0 0 1-.1.5 11 11 0 0 1-5 1.4zm.4-18.3a.4.4 0 0 1-.4-.4c0-.9-.3-1.4-.8-1.7-1-.4-2.6.4-3.2.8a.4.4 0 0 1-.5-.7c.1 0 2.5-1.6 4-.8a2.6 2.6 0 0 1 1.3 2.4.4.4 0 0 1-.4.4zm10.2 4.6a.4.4 0 0 1-.4-.4s-.2-2-1.3-2.7c-1-.7-2.2.8-2.2.8a.4.4 0 0 1-.6 0 .4.4 0 0 1 0-.5c.5-.7 1.9-1.9 3.2-1 1.5 1 1.7 3.3 1.7 3.3a.4.4 0 0 1-.4.5zm-32.3-2.2a8.1 8.1 0 0 0 .8 4.2c1.3 2.4 4.5 3.4 7 2.6 7-2 10.2-15 5-20.1-4.8-4.8-10.2 2.7-11.4 7.1-.5 2.1-1.3 4-1.4 6.2z"/><path fill="#231F20" d="M211 108.7a6.4 6.4 0 0 1-5.6-3 8.3 8.3 0 0 1-.8-4.6c.1-1.5.4-3 1-4.5l.4-1.7c.8-3 3.8-7.8 7.3-8.8a4.8 4.8 0 0 1 4.8 1.5c2.5 2.4 3.3 7 2.1 11.6-1.1 4.7-4 8.3-7.2 9.2a7.1 7.1 0 0 1-2 .3zm-5.6-7.5a7.7 7.7 0 0 0 .7 4 5.8 5.8 0 0 0 6.7 2.4c3-.9 5.6-4.2 6.7-8.6 1-4.4.4-8.6-2-10.8a4 4 0 0 0-4-1.3c-3.1 1-6 5.4-6.7 8.2a59.1 59.1 0 0 1-.5 1.8 18.6 18.6 0 0 0-.9 4.3z"/><path fill="#231F20" d="M243.1 109.2a1 1 0 0 1-.8-1.4 104 104 0 0 0 12-27.3c.7-3.8-1-7.6-4.7-10.8-5-4.4-12.5-6.3-17.8-4.6-9.5 3-14.5 24.7-14.6 24.9a1 1 0 0 1-1.7-.4c.2-1 5.3-23 15.7-26.3 6-1.9 14 .2 19.6 5 4.2 3.7 6.1 8 5.4 12.5-1.9 10.8-11.9 27.3-12.3 28a1 1 0 0 1-.8.4z"/><path fill="#231F20" d="M292.9 239a31.3 31.3 0 0 1-9.7-1.6 31.8 31.8 0 0 1-10.2-5.9c-5-4-9.5-9-13.9-13.7-2.7-3-5.6-6.1-8.6-9-9.3-9-18.5-13.8-27.5-14.3-12-.6-22.7 6.3-32.5 13.8l-2.9 2.3c-7.8 6.2-16.8 13.3-27.8 11.6a29.1 29.1 0 0 1-16.9-10.4 49.5 49.5 0 0 1-10.8-38.9 38.4 38.4 0 0 1 25.2-31.8c12.1-5 23.5-11.8 34.6-18.5 6.9-4.1 14.2-9.4 16.1-17.3a.5.5 0 0 1 1 .2c-2.1 8.2-9.5 13.7-16.5 17.9h-.1c-11 6.7-22.5 13.6-34.7 18.5a37.5 37.5 0 0 0-24.7 31.2c-2 13.8 2 28 10.6 38 3.5 4 9.1 9.1 16.3 10.2 10.7 1.6 19-5 27.2-11.5l2.9-2.2c9.9-7.7 20.7-14.7 33-14 9.2.4 18.7 5.3 28.2 14.5 3 2.9 5.8 6 8.6 9a128 128 0 0 0 13.8 13.7 31 31 0 0 0 9.8 5.8c12.4 4 24.8 0 37-11.7a100 100 0 0 0 27.7-72.8c-.2-13.5-2.7-24-7.7-32.2-2-3.3-4.6-7-8.8-8.8-2.1-1-7.1-1.3-9 1.4-.8 1-.8 2.3-1 3.8l-.1 2.3a.5.5 0 0 1-1-.2c.2-.7.2-1.4.2-2.1.1-1.7.2-3 1.1-4.3 2.3-3.1 7.8-2.8 10.2-1.7 4.4 1.9 7 5.7 9.2 9.1A64 64 0 0 1 349 152c.3 29-9.9 55.9-28 73.5-9.2 9-18.7 13.5-28.1 13.5zM204.2 37a.5.5 0 0 1-.4-.1.5.5 0 0 1 0-.7c2-1.7 4-2.5 6-2.3a6.4 6.4 0 0 1 4.1 2.4c.2.2.1.5 0 .6a.5.5 0 0 1-.7 0 5.6 5.6 0 0 0-3.5-2.1c-1.7-.2-3.5.5-5.3 2a.5.5 0 0 1-.2.2z"/><path fill="#231F20" d="M231.5 185.4a.5.5 0 0 1-.2 0 .4.4 0 0 1-.2-.6l11.6-23.2a.4.4 0 0 1 .8.4l-11.6 23.2a.4.4 0 0 1-.4.2zm-21.6 4.5c-13.2 0-28.8-4.3-29.7-4.5a.4.4 0 1 1 .3-.8c.2 0 28 7.7 41 2.8.1 0 .4 0 .5.3a.4.4 0 0 1-.3.5 34 34 0 0 1-11.8 1.7zm110.5-75.6h2v3h-2z"/><path fill="#231F20" d="M322.4 117.7h-2a.4.4 0 0 1-.4-.4v-3a.4.4 0 0 1 .4-.4h2c.2 0 .4.2.4.4v3a.4.4 0 0 1-.4.4zm-1.6-.8h1.2v-2.2h-1.2v2.2z"/><path fill="#FFF" d="m213 105.7-.6-.7a13.3 13.3 0 0 0 2.3-15.7l.8-.5a14.3 14.3 0 0 1-2.5 16.9zm30.3 12-.8-.4c2.6-6.9 2-12 2-12l.9-.1c0 .2.7 5.3-2.1 12.5zm-74-38 6.6-6.7.6.6-6.6 6.8zm120 89.3.4-.8 7 3.4-.3.9z"/><path fill="#CD7DF3" d="M53.8 105c-.4 0-.8 0-1.2-.2a3.5 3.5 0 0 1-2.5-2.4 3.7 3.7 0 0 1 .6-3 6.7 6.7 0 0 1 4.4-2.9c1.2-.2 1.7-.2 3.6.3v-22l21.7-4.4v27a4.6 4.6 0 0 1-1.6 3.6 6.8 6.8 0 0 1-6.6 1.7 3.4 3.4 0 0 1-2.5-2.4 3.6 3.6 0 0 1 .5-3 6.6 6.6 0 0 1 4.4-2.9 6.3 6.3 0 0 1 3.6.3V79.5l-1.5.3a5773.3 5773.3 0 0 1-15.5 3c-.3.1-.4.3-.4.5v16.1a5 5 0 0 1-2 4.2 7.3 7.3 0 0 1-3.5 1.4 1.6 1.6 0 0 0-.2 0h-1.3zm343.8 63.3v-.5a2.8 2.8 0 0 0-.5-1.3 5.8 5.8 0 0 0-1.8-1.7 6.5 6.5 0 0 0-2.3-1h-1.7a1.1 1.1 0 0 1 0-.1c0-.4.2-.7.3-1l1.8-6.5 2-7-.6-.1a11.4 11.4 0 0 0-5.1.9 7.4 7.4 0 0 0-3.6 3.1c-.3.4-.4.9-.6 1.3l-.4.8a.5.5 0 0 0 0 .2l.3-.2c.7-.5 1.4-.9 2.2-1.2a8.2 8.2 0 0 1 4-.7 7.1 7.1 0 0 1 1.6.3.8.8 0 0 0 0 .2l-3.3 11.6a.5.5 0 0 0 0 .2c.1.6.4 1.3.8 1.8a6 6 0 0 0 2.2 1.7l.7.3.7.2h.1a4.2 4.2 0 0 0 1.7 0 2 2 0 0 0 1.2-.7l.3-.4v-.2zm-326.5 9 .1-.6c.2-.6.5-1.2 1-1.6a7.7 7.7 0 0 1 2.6-1.8 8.4 8.4 0 0 1 3.1-.7 5.5 5.5 0 0 1 2 .3h.2v-.2l-.1-1.4-1-8.6a151 151 0 0 1-1.2-9.4v-.2h.8c2.3.3 4.5 1 6.4 2.3a9.6 9.6 0 0 1 4 4.7l.5 1.8.2 1.2a.3.3 0 0 1 0 .1l-.2-.2a22.8 22.8 0 0 0-2.7-2.1 10.4 10.4 0 0 0-4.9-1.7 9.2 9.2 0 0 0-2.2.1v.2l1.9 15.6a.7.7 0 0 1 0 .3 4.3 4.3 0 0 1-1.5 2.2 7.7 7.7 0 0 1-3 1.7l-1 .2-1 .1H75a5.4 5.4 0 0 1-2.1-.2 2.4 2.4 0 0 1-1.4-1.1 4.6 4.6 0 0 1-.3-.6v-.4zm219.7-81.2.4-.7a4.4 4.4 0 0 1 1.7-1.5 9.3 9.3 0 0 1 3.6-1 10.1 10.1 0 0 1 3.9.4 6.4 6.4 0 0 1 2.1 1.2l.2.1a1.6 1.6 0 0 0 .1-.2l.4-1.7 2.2-10.1 2.4-11v-.3l1 .4a17.8 17.8 0 0 1 6.3 5 11.5 11.5 0 0 1 2.6 7l-.1 2-.2 1.5a.4.4 0 0 1 0 .2l-.2-.4a26.6 26.6 0 0 0-2.2-3.4 12.4 12.4 0 0 0-4.9-3.8 10.5 10.5 0 0 0-2.6-.7 1.4 1.4 0 0 1 0 .2l-4 18.3a1 1 0 0 1-.2.3 5.2 5.2 0 0 1-2.4 2 9.4 9.4 0 0 1-4.2.6h-1.2l-1-.3h-.2A6.4 6.4 0 0 1 292 99a3 3 0 0 1-1.2-1.8 7.6 7.6 0 0 1 0-.8v-.3z"/><path fill="#698DFF" d="M38 50.8c-4.6 0-4.6 7.3 0 7.3 4.8 0 4.8-7.3 0-7.3zm357 8c-4.6 0-4.6 7.3 0 7.3 4.8 0 4.8-7.3 0-7.3zm-60.3-16.9a2 2 0 0 0-.5-.8l-.3-.3a1.8 1.8 0 0 0-1-.2h-.5a1.3 1.3 0 0 0-.7.1l-.6.4a1.4 1.4 0 0 0-.3.6c-.2.2-.2.5-.2.7v.5l.5.8.4.3 1 .2h.4l.7-.1c.3-.1.5-.2.6-.4a2 2 0 0 0 .6-1.3v-.5zm-219.1-8.6c-3 0-3 4.6 0 4.6s3-4.6 0-4.6zm264.3 44.5c-3 0-3 4.6 0 4.6s3-4.6 0-4.6z"/></g></g></svg>