<svg xmlns="http://www.w3.org/2000/svg" xmlns:xlink="http://www.w3.org/1999/xlink" viewBox="0 0 350 140"><defs><linearGradient id="c" x1="50%" x2="50%" y1=".8%" y2="100%"><stop offset="0%" stop-color="#0989B4" stop-opacity="0"/><stop offset="99.9%" stop-color="#53FFEE"/></linearGradient><linearGradient id="d" x1="50%" x2="50%" y1=".8%" y2="100%"><stop offset="0%" stop-color="#0989B4" stop-opacity="0"/><stop offset="99.9%" stop-color="#53FFEE"/></linearGradient><path id="a" d="M0 0h350v140H0z"/></defs><g fill="none" fill-rule="evenodd"><mask id="b" fill="#fff"><use xlink:href="#a"/></mask><use xlink:href="#a" fill="#41CBD3"/><g mask="url(#b)" opacity=".5"><g transform="translate(-11 -4)"><circle cx="60.5" cy="14.8" r="14.8" fill="url(#c)" transform="rotate(90 60.5 14.8)"/><circle cx="14.8" cy="14.8" r="14.8" fill="url(#d)" transform="rotate(180 14.8 14.8)"/><circle cx="151.8" cy="14.8" r="14.8" fill="url(#d)"/><circle cx="106.1" cy="14.8" r="14.8" fill="url(#c)" transform="rotate(-90 106.1 14.8)"/><circle cx="243.1" cy="14.8" r="14.8" fill="url(#c)" transform="rotate(90 243 14.8)"/><circle cx="197.4" cy="14.8" r="14.8" fill="url(#d)" transform="rotate(180 197.4 14.8)"/><circle cx="334.3" cy="14.8" r="14.8" fill="url(#d)"/><circle cx="288.7" cy="14.8" r="14.8" fill="url(#c)" transform="rotate(-90 288.7 14.8)"/></g><g transform="translate(-11 91.6)"><circle cx="60.5" cy="14.8" r="14.8" fill="url(#c)" transform="rotate(90 60.5 14.8)"/><circle cx="14.8" cy="14.8" r="14.8" fill="url(#d)" transform="rotate(180 14.8 14.8)"/><circle cx="151.8" cy="14.8" r="14.8" fill="url(#d)"/><circle cx="106.1" cy="14.8" r="14.8" fill="url(#c)" transform="rotate(-90 106.1 14.8)"/><circle cx="243.1" cy="14.8" r="14.8" fill="url(#c)" transform="rotate(90 243 14.8)"/><circle cx="197.4" cy="14.8" r="14.8" fill="url(#d)" transform="rotate(180 197.4 14.8)"/><circle cx="334.3" cy="14.8" r="14.8" fill="url(#d)"/><circle cx="288.7" cy="14.8" r="14.8" fill="url(#c)" transform="rotate(-90 288.7 14.8)"/></g><g transform="translate(-11 43.8)"><circle cx="60.5" cy="14.8" r="14.8" fill="url(#c)" transform="rotate(-90 60.5 14.8)"/><circle cx="14.8" cy="14.8" r="14.8" fill="url(#d)"/><circle cx="151.8" cy="14.8" r="14.8" fill="url(#d)"/><circle cx="106.1" cy="14.8" r="14.8" fill="url(#c)" transform="rotate(90 106.1 14.8)"/><circle cx="243.1" cy="14.8" r="14.8" fill="url(#c)" transform="rotate(-90 243 14.8)"/><circle cx="197.4" cy="14.8" r="14.8" fill="url(#d)"/><circle cx="334.3" cy="14.8" r="14.8" fill="url(#d)"/><circle cx="288.7" cy="14.8" r="14.8" fill="url(#c)" transform="rotate(90 288.7 14.8)"/></g><g transform="translate(11.8 18.8)"><circle cx="60.5" cy="14.8" r="14.8" fill="url(#c)" transform="rotate(90 60.5 14.8)"/><circle cx="14.8" cy="14.8" r="14.8" fill="url(#d)" transform="rotate(180 14.8 14.8)"/><circle cx="151.8" cy="14.8" r="14.8" fill="url(#d)"/><circle cx="106.1" cy="14.8" r="14.8" fill="url(#c)" transform="rotate(-90 106.1 14.8)"/><circle cx="243.1" cy="14.8" r="14.8" fill="url(#c)" transform="rotate(90 243 14.8)"/><circle cx="197.4" cy="14.8" r="14.8" fill="url(#d)" transform="rotate(180 197.4 14.8)"/><circle cx="334.3" cy="14.8" r="14.8" fill="url(#d)"/><circle cx="288.7" cy="14.8" r="14.8" fill="url(#c)" transform="rotate(-90 288.7 14.8)"/></g><g transform="translate(11.8 114.4)"><circle cx="60.5" cy="14.8" r="14.8" fill="url(#c)" transform="rotate(90 60.5 14.8)"/><circle cx="14.8" cy="14.8" r="14.8" fill="url(#d)" transform="rotate(180 14.8 14.8)"/><circle cx="151.8" cy="14.8" r="14.8" fill="url(#d)"/><circle cx="106.1" cy="14.8" r="14.8" fill="url(#c)" transform="rotate(-90 106.1 14.8)"/><circle cx="243.1" cy="14.8" r="14.8" fill="url(#c)" transform="rotate(90 243 14.8)"/><circle cx="197.4" cy="14.8" r="14.8" fill="url(#d)" transform="rotate(180 197.4 14.8)"/><circle cx="334.3" cy="14.8" r="14.8" fill="url(#d)"/><circle cx="288.7" cy="14.8" r="14.8" fill="url(#c)" transform="rotate(-90 288.7 14.8)"/></g><g transform="translate(11.8 66.6)"><circle cx="60.5" cy="14.8" r="14.8" fill="url(#c)" transform="rotate(-90 60.5 14.8)"/><circle cx="14.8" cy="14.8" r="14.8" fill="url(#d)"/><circle cx="151.8" cy="14.8" r="14.8" fill="url(#d)"/><circle cx="106.1" cy="14.8" r="14.8" fill="url(#c)" transform="rotate(90 106.1 14.8)"/><circle cx="243.1" cy="14.8" r="14.8" fill="url(#c)" transform="rotate(-90 243 14.8)"/><circle cx="197.4" cy="14.8" r="14.8" fill="url(#d)"/><circle cx="334.3" cy="14.8" r="14.8" fill="url(#d)"/><circle cx="288.7" cy="14.8" r="14.8" fill="url(#c)" transform="rotate(90 288.7 14.8)"/></g></g></g></svg>