<svg xmlns="http://www.w3.org/2000/svg" viewBox="0 0 162 108"><g fill="none"><path fill="#E6E6E6" d="M30 93.74h-.04a23.46 23.46 0 0 1-1.61-.18.54.54 0 0 1 .15-1.08c.52.08 1.04.13 1.56.18a.54.54 0 0 1-.04 1.07l-.02.01Zm5.37-.2a.54.54 0 0 1-.08-1.08 19.51 19.51 0 0 0 1.54-.3.54.54 0 0 1 .65.4.54.54 0 0 1-.4.65c-.54.13-1.08.23-1.61.32h-.1Zm-12.14-1.31a.54.54 0 0 1-.18-.04 24.35 24.35 0 0 1-1.53-.6.54.54 0 0 1 .43-1c.48.22.98.41 1.47.6a.54.54 0 0 1-.19 1.04ZM42 91.4a.54.54 0 0 1-.24-1.02c.47-.23.93-.48 1.39-.75a.54.54 0 1 1 .54.93c-.48.28-.97.54-1.45.78a.54.54 0 0 1-.26.06h.02Zm-25-2.3a.54.54 0 0 1-.28-.07c-.46-.3-.92-.6-1.36-.91a.54.54 0 1 1 .61-.89c.44.31.88.6 1.32.89a.54.54 0 0 1-.28.99Zm30.78-1.54a.54.54 0 0 1-.4-.2.54.54 0 0 1 .05-.75l.12-.12 1.07-.96a.54.54 0 1 1 .73.79l-1.1.98-.13.1a.54.54 0 0 1-.34.16Zm-36.33-2.69a.54.54 0 0 1-.36-.14c-.4-.37-.8-.74-1.18-1.12a.54.54 0 0 1 .75-.77c.38.37.77.74 1.16 1.08a.54.54 0 0 1 .03.76.54.54 0 0 1-.4.2Zm41.3-2.2a.54.54 0 0 1-.39-.9l1.07-1.2a.54.54 0 1 1 .81.7l-1.07 1.21a.54.54 0 0 1-.41.16v.02ZM6.73 79.71a.54.54 0 0 1-.42-.2 41.79 41.79 0 0 1-.99-1.3.54.54 0 0 1 .13-.76.54.54 0 0 1 .74.12c.31.43.63.85.96 1.27a.54.54 0 0 1-.42.87Zm50.58-2.38a.54.54 0 0 1-.42-.88l1.02-1.25a.54.54 0 1 1 .84.67l-1.02 1.26a.54.54 0 0 1-.42.2ZM2.9 73.89a.54.54 0 0 1-.47-.32c-.26-.5-.5-1-.72-1.48a.54.54 0 0 1 .69-.72c.13.05.24.15.3.28.2.47.44.95.68 1.43a.54.54 0 0 1-.48.79v.02Zm58.75-2.03a.54.54 0 0 1-.42-.87l.99-1.27a.54.54 0 1 1 .84.65l-.98 1.28a.54.54 0 0 1-.43.19v.02ZM.68 67.29a.54.54 0 0 1-.53-.47A17.06 17.06 0 0 1 0 65.16a.54.54 0 1 1 1.07 0c.02.52.07 1.04.14 1.55a.54.54 0 0 1-.46.6l-.07-.03Zm65.24-.98a.54.54 0 0 1-.43-.86l.99-1.28a.54.54 0 0 1 .85.65l-1 1.26a.54.54 0 0 1-.4.21v.02Zm88.5-2.96a.72.72 0 0 1-.16 0 .54.54 0 0 1-.36-.66l.42-1.55a.54.54 0 0 1 .65-.38.54.54 0 0 1 .39.66l-.43 1.56a.54.54 0 0 1-.52.37Zm-84.26-2.59a.54.54 0 0 1-.42-.87l.98-1.28a.54.54 0 1 1 .86.67l-1 1.27a.54.54 0 0 1-.4.18l-.01.03Zm-68.92-.38a.54.54 0 0 1-.16 0 .54.54 0 0 1-.35-.67 21.47 21.47 0 0 1 .54-1.57.54.54 0 1 1 1 .4c-.2.5-.38.99-.55 1.48a.54.54 0 0 1-.47.33v.03Zm154.78-3.86a.31.31 0 0 1-.1 0 .54.54 0 0 1-.43-.63l.28-1.58a.55.55 0 1 1 1.07.18l-.28 1.61a.54.54 0 0 1-.54.42ZM74.46 55.2a.54.54 0 0 1-.42-.87l1-1.27a.54.54 0 1 1 .84.67l-1 1.26a.54.54 0 0 1-.4.2h-.02ZM4.44 54.16a.54.54 0 0 1-.43-.85c.32-.44.66-.87 1.02-1.3a.54.54 0 1 1 .82.7 22.92 22.92 0 0 0-.98 1.23.54.54 0 0 1-.43.23Zm74.4-4.41a.54.54 0 0 1-.41-.88l1.03-1.25a.54.54 0 1 1 .84.67l-1.02 1.24a.54.54 0 0 1-.44.22Zm78.13-.16h-.05a.54.54 0 0 1-.49-.58c.04-.54.08-1.08.1-1.61a.54.54 0 0 1 .57-.54c.3.02.52.27.5.56a54.25 54.25 0 0 1-.1 1.62.54.54 0 0 1-.53.55ZM9.28 49.13a.54.54 0 0 1-.34-.96c.8-.64 1.32-.99 1.34-1a.54.54 0 0 1 .59.9s-.5.33-1.25.94a.54.54 0 0 1-.35.12h.01Zm74.08-4.74a.54.54 0 0 1-.4-.89l1.07-1.22a.54.54 0 1 1 .8.71l-1.07 1.22a.54.54 0 0 1-.42.18h.01Zm73.74-1.8a.54.54 0 0 1-.54-.5 54.33 54.33 0 0 0-.12-1.62.54.54 0 1 1 1.08-.1c.04.55.09 1.08.11 1.62 0 .29-.22.52-.5.54l-.03.06Zm-69.07-3.41a.54.54 0 0 1-.39-.9l1.1-1.18a.54.54 0 0 1 .79.73l-1.08 1.18a.54.54 0 0 1-.44.17h.02Zm68.1-3.5a.54.54 0 0 1-.54-.41 22.67 22.67 0 0 0-.41-1.54.54.54 0 0 1 1.03-.3c.15.53.3 1.05.42 1.58a.54.54 0 0 1-.4.65l-.1.01ZM92.9 34.16a.54.54 0 0 1-.37-.92l1.16-1.13a.54.54 0 1 1 .77.76c-.4.37-.77.74-1.16 1.12a.54.54 0 0 1-.42.17h.02Zm5.14-4.74a.54.54 0 0 1-.35-.94l1.23-1.08a.54.54 0 1 1 .7.83l-1.23 1.04a.54.54 0 0 1-.37.15h.02Zm55.2-.58c-.25-.46-.5-.93-.78-1.37a.54.54 0 1 1 .92-.56c.28.46.54.95.81 1.43a.54.54 0 0 1-.48.8.54.54 0 0 1-.47-.3Zm-49.74-3.79a.54.54 0 0 1-.32-.97l1.32-.94a.54.54 0 0 1 .84.39.54.54 0 0 1-.22.49l-1.3.93a.54.54 0 0 1-.34.1h.02Zm46.13-1.56a.54.54 0 0 1-.38-.16c-.36-.35-.74-.71-1.14-1.07a.54.54 0 1 1 .7-.8c.41.35.82.73 1.2 1.13a.54.54 0 0 1 0 .76.54.54 0 0 1-.4.15h.02Zm-40.28-2.27a.54.54 0 0 1-.27-1c.47-.28.95-.54 1.42-.8a.54.54 0 0 1 .8.47.54.54 0 0 1-.27.47c-.46.25-.92.54-1.39.78a.54.54 0 0 1-.34.07h.05Zm34.74-1.9a.5.5 0 0 1-.26-.07c-.45-.25-.92-.49-1.4-.71a.54.54 0 0 1 .46-.98c.5.24.98.5 1.46.75a.54.54 0 0 1-.26 1.01Zm-28.49-1.2a.54.54 0 0 1-.2-1.03c.5-.2 1.01-.4 1.52-.58a.54.54 0 0 1 .37 1c-.5.19-1 .37-1.49.58a.54.54 0 0 1-.24.04h.04Zm22.05-1.45a.78.78 0 0 1-.16 0c-.5-.15-1.02-.29-1.53-.4a.55.55 0 0 1 .25-1.08c.54.13 1.08.27 1.61.42a.54.54 0 0 1-.15 1.08l-.02-.02Zm-15.46-.6a.54.54 0 0 1-.12-1.06l1.61-.29a.54.54 0 0 1 .6.74.54.54 0 0 1-.43.34c-.54.08-1.04.17-1.56.28a.36.36 0 0 1-.1 0Zm8.55-.6h-.03a32.41 32.41 0 0 0-1.58-.06.54.54 0 0 1 0-1.07 28 28 0 0 1 1.63.06.54.54 0 0 1-.03 1.07h.01Z"/><path fill="#39475F" d="M119.85 100.22h-61.7L70.33.8h55.03l5.74 7.6z"/><path fill="#61728D" d="M113.17 100.22h-61.7L63.65.8h61.7z"/><path fill="#181F27" d="M110.13 81.35H58.58l8.79-71.7h51.55z"/><path fill="#1E252E" d="m92.74 50.05 14.9.18-.29 2.31-14.6-.25z"/><path fill="#39475F" d="m51.47 100.22 7.42 6.87 60.03.91.93-7.78z"/><path fill="#2D394B" d="M99.1 29.06s2.57.18 3.88 5.03c1.32 4.84.87 18.37.87 18.37l-11.1-.17s-5.53-20.14 6.35-23.23Z"/><path fill="#FC7614" d="M5.42 32.84 45.78 0l21.18 26.12L26.6 58.96z"/><path fill="#FFF" d="m27.49 21.93 18.07-14.7 3.5 4.3-18.07 14.71z"/><path fill="#FFF" d="m25.27 45.17 5.34-4.34a2.77 2.77 0 0 1 3.9.4 2.78 2.78 0 0 1-.4 3.91l-5.34 4.35a2.77 2.77 0 0 1-3.9-.4 2.78 2.78 0 0 1 .4-3.92Zm12.06-9.8 16.89-13.75a2.77 2.77 0 0 1 3.9.4 2.78 2.78 0 0 1-.4 3.92L40.83 39.67a2.77 2.77 0 0 1-3.9-.4 2.78 2.78 0 0 1 .4-3.92Z" opacity=".46"/><ellipse cx="17.94" cy="33.64" fill="#FFF" opacity=".3" rx="3.67" ry="3.68"/><ellipse cx="21.66" cy="30.28" fill="#FFF" opacity=".3" rx="3.67" ry="3.68"/><path fill="#BAD6FA" d="M99.1 29.06s-5.84 2.1-3.8 18.58c1.49 12.07-3.56 28.05-11.01 28.25-7.46.2-21.2-.46-21.2-.46s7.16-18.56 5.67-34.15a14.79 14.79 0 0 1 .77-6.46c.87-2.37 2.48-4.84 5.49-5.24 6-.82 24.08-.52 24.08-.52Z"/><path fill="#546F8D" d="m58.96 76.63 26.34-.54s-4.02-3.99-4.27-14.15l-36.23.54A31.5 31.5 0 0 0 47.64 70a12.55 12.55 0 0 0 11.32 6.62Z"/><path fill="#2D394B" d="m78.21 14.83-.92 6.04h26.62l.8-6.04z"/><path fill="#FFF" d="M85.54 86.19c-2.87-2.52-7.42-2.02-9.45 1.22a4.96 4.96 0 0 0-.8 2.65c0 3.98 2.75 6.59 8.23 5.5 4.19-.85 5.78-6.08 2.02-9.37Z" opacity=".48"/><ellipse cx="147.19" cy="81.54" fill="#FC7614" rx="14.81" ry="14.84"/><path fill="#FFF" d="M73.73 35.75a.54.54 0 0 1-.04-1.08c.12 0 11.35-.82 17.37-.29a.54.54 0 0 1-.1 1.08c-5.9-.54-17.08.27-17.19.28l-.04.01Zm-.89 7.28a.54.54 0 0 1-.04-1.08c.11 0 11.34-.83 17.36-.29a.54.54 0 0 1-.1 1.08c-5.9-.54-17.07.28-17.18.28h-.04Zm-.1 7.56a.54.54 0 0 1-.05-1.07c.12 0 11.35-.83 17.37-.3a.54.54 0 0 1-.1 1.08c-5.9-.54-17.07.28-17.19.29h-.03Zm-.72 7.57a.54.54 0 0 1-.03-1.08c.1 0 11.34-.83 17.36-.28a.54.54 0 0 1-.1 1.07c-5.9-.54-17.07.28-17.18.29h-.05Z"/></g></svg>