<svg xmlns="http://www.w3.org/2000/svg" width="64" height="40"><g><circle cx="20" cy="20" r="20" fill="#000" opacity=".2"/><path fill="#FFD473" d="M52.94 24.11a3.48 3.48 0 0 1 3.51 3.44c0 1.9-1.57 3.45-3.51 3.45s-3.52-1.54-3.52-3.44 1.57-3.45 3.52-3.45zm-21.96 0a3.48 3.48 0 0 1 3.52 3.44c0 1.9-1.58 3.45-3.52 3.45s-3.52-1.54-3.52-3.44 1.58-3.45 3.52-3.45zm6.95-4.85v1.43c0 .72.6 1.3 1.34 1.26a1.3 1.3 0 0 0 1.23-1.3v-1.39h8.26l13.48 1.31c.96.1 1.68.89 1.68 1.82 0 2.89-2.13 5.3-4.93 5.82a6.02 6.02 0 0 0-6.05-6.62 6.01 6.01 0 0 0-6.04 6.72h-9.88a6.01 6.01 0 0 0-6.04-6.72 6.02 6.02 0 0 0-6.05 6.62 6.04 6.04 0 0 1-4.61-3.93h1.14c.73 0 1.32-.6 1.28-1.32a1.3 1.3 0 0 0-1.32-1.2H20v-.26a2.27 2.27 0 0 1 2.3-2.24h15.63zM42.59 11a6.4 6.4 0 0 1 5.97 3.96l.73 1.78h-9.12L38.41 11h4.18zm-6.87 0 1.76 5.74H26.51l3.35-3.65A6.5 6.5 0 0 1 34.64 11h1.09z"/></g></svg>