<svg xmlns="http://www.w3.org/2000/svg" width="64" height="40"><g><circle cx="20" cy="20" r="20" fill="#000" opacity=".2"/><path fill="#19B89D" d="M30.98 22.84c1.94 0 3.52 1.6 3.52 3.58S32.92 30 30.98 30s-3.52-1.6-3.52-3.58a3.55 3.55 0 0 1 3.52-3.59zm21.96 0c1.94 0 3.51 1.6 3.51 3.58S54.88 30 52.94 30s-3.52-1.6-3.52-3.58a3.55 3.55 0 0 1 3.52-3.59zm-9.15-10.45a1.27 1.27 0 0 1 1.82 0l3.72 3.78a26.5 26.5 0 0 1 13.96 3.75c.39.24.62.67.62 1.13 0 3-2.12 5.51-4.92 6.05a6.17 6.17 0 0 0-6.05-6.89 6.17 6.17 0 0 0-6.04 7h-9.67l1.33-2.72.09-.16 2.88-5.65a10.9 10.9 0 0 0 5.25-1.4l-2.99-3.04a1.33 1.33 0 0 1 0-1.86zm-7.68 1.06c.69-.2 1.4.2 1.6.9l.74 2.65a3.46 3.46 0 0 1-.24 2.5l-1.74 3.4-.21.43a6.08 6.08 0 0 0-5.28-3.12 6.17 6.17 0 0 0-6.05 6.89 6.03 6.03 0 0 1-4.28-3.28 1.33 1.33 0 0 1 .12-1.37l.95-1.3-1.32-1.3a1.32 1.32 0 0 1 .64-2.23l6.61-1.35.13-.02.16-.04c.31-.14 1.07-.59 1.07-1.5 0-.74.59-1.33 1.31-1.31.72.01 1.27.66 1.26 1.39a4.11 4.11 0 0 1-.35 1.6 22.69 22.69 0 0 1 4.7 1.15l-.7-2.47a1.31 1.31 0 0 1 .88-1.62z"/></g></svg>