<svg xmlns="http://www.w3.org/2000/svg" width="64" height="40"><g><circle cx="20" cy="20" r="20" fill="#000" opacity=".2"/><path fill="#26B5C0" d="M31 22.36c2.92 0 5.18 2.6 4.76 5.5a4.83 4.83 0 0 1-2.96 3.78 4.8 4.8 0 0 1-5.3-1.16c-1.19-1.26-1.23-2.62-1.26-2.62a4.82 4.82 0 0 1 4.76-5.5zm22 0c3.46 0 5.8 3.57 4.41 6.74a4.82 4.82 0 0 1-5.11 2.84 4.83 4.83 0 0 1-4.06-4.08 4.82 4.82 0 0 1 4.76-5.5zm-15.04-6.08v1.46a1.29 1.29 0 0 0 1.35 1.29c.7-.04 1.23-.63 1.23-1.33v-1.43h8.3L61.9 17a1.29 1.29 0 0 1 1.16.92l.56 1.87h-1.04c-.7 0-1.3.53-1.33 1.23a1.29 1.29 0 0 0 1.3 1.35h1.44a5.98 5.98 0 0 1-3.6 5.05 7.4 7.4 0 1 0-14.75.45h-7.28a7.4 7.4 0 0 0-8.13-8.04v-3.54h7.73zm-10.31 0v4.3a7.4 7.4 0 0 0-4 7.28A3.87 3.87 0 0 1 20 23.99v-1.63h1.46a1.29 1.29 0 0 0 0-2.58H20V16.27h7.65zm14.99-8.2c2.65 0 5 1.6 5.98 4.05l.63 1.58a5.53 5.53 0 0 1-.07 0h-.08a4.18 4.18 0 0 0-.22-.01H40.2l-1.68-5.62zM29 8.08l-1.12 5.61h-7.14L22.2 9a1.29 1.29 0 0 1 1.23-.91H29zm6.84 0 1.68 5.61h-7l1.11-5.61h4.2z"/></g></svg>